<svg xmlns="http://www.w3.org/2000/svg" width="24" height="23.906"><path data-name="Shopping Cart Icon" d="M23.994 6.548l-1.332 4.121c0 1.518-2.612 1.764-4.084 1.764H7.439l.929 1.911h14.855l-.929 2.868H5.582L3.372 2.845H1.344a1.374 1.374 0 0 1 0-2.748h2.665a1.254 1.254 0 0 1 .318.066l1.4-.17.781 2.883a4.335 4.335 0 0 1 .928 0h14.858c1.472 0 1.7 2.154 1.7 3.672zM10.222 18.166a2.869 2.869 0 1 1-2.8 2.868 2.833 2.833 0 0 1 2.8-2.868zm7.429 0a2.869 2.869 0 1 1-2.781 2.868 2.825 2.825 0 0 1 2.781-2.868z" fill="#61279e" fill-rule="evenodd"/></svg>