<svg xmlns="http://www.w3.org/2000/svg" width="25.344" height="25.344"><path fill-rule="evenodd" fill="#61279E" d="M18.994 5.219l-1.055 3.275c0 1.205-2.069 1.401-3.234 1.401H5.882l.735 1.519h11.764l-.735 2.278H4.411L2.661 2.277H1.055C.472 2.277 0 1.788 0 1.185 0 .582.472.094 1.055.094h2.111c.089 0 .169.031.251.052L4.528.011l.619 2.291c.21-.053.537 0 .735 0h11.764c1.165 0 1.348 1.712 1.348 2.917zM8.085 14.451c1.223 0 2.215 1.02 2.215 2.279 0 1.258-.992 2.278-2.215 2.278-1.223 0-2.214-1.02-2.214-2.278 0-1.259.991-2.279 2.214-2.279zm5.884 0c1.216 0 2.202 1.02 2.202 2.279 0 1.258-.986 2.278-2.202 2.278-1.217 0-2.203-1.02-2.203-2.278 0-1.259.986-2.279 2.203-2.279z"/></svg>