<svg xmlns="http://www.w3.org/2000/svg" width="26.688" height="21.312"><path fill-rule="evenodd" fill="#61279E" d="M9.507 15.998a1.14 1.14 0 0 1-.676-.222c-.143-.106-3.544-2.625-5.937-5.03C-.387 7.448-.934 3.737 1.501 1.29 2.339.447 3.45.002 4.713.002c1.487 0 3.131 1.055 4.794 2.192C11.17 1.057 12.814.002 14.301.002c1.263 0 2.374.445 3.212 1.288 2.435 2.447 1.888 6.158-1.393 9.456-2.393 2.405-5.793 4.924-5.937 5.03a1.137 1.137 0 0 1-.676.222zM4.713 2.296c-.663 0-1.186.201-1.598.616-1.477 1.484-.943 3.865 1.393 6.212 1.655 1.663 3.893 3.439 4.999 4.29 1.106-.852 3.346-2.629 4.998-4.29 2.337-2.347 2.871-4.728 1.394-6.212-.412-.415-.935-.616-1.598-.616-1.169 0-2.625 1.086-4.099 2.222-.41.317-.98.316-1.39 0-1.474-1.136-2.93-2.222-4.099-2.222z"/></svg>