<svg xmlns="http://www.w3.org/2000/svg" width="17" height="18"><path data-name="store icon" d="M16.937 5.793l-.056-.258-.825-.8a11.421 11.421 0 0 1-.526-2.456 2.16 2.16 0 0 0-2.1-2.281H3.459a2.132 2.132 0 0 0-1.918 2.29v2.08L.127 5.534l-.055.253a3.455 3.455 0 0 0 .4 2.424 2.627 2.627 0 0 0 .584.654V15.8A2.009 2.009 0 0 0 2.787 18h11.224a1.975 1.975 0 0 0 2.048-1.9V8.526c.319-.208.269.022.48-.312a3.431 3.431 0 0 0 .398-2.421zM14.051 15.8a.518.518 0 0 0 .116.3H9.444v-3.79a2.215 2.215 0 0 0-1.888-1.895H5.667a2.216 2.216 0 0 0-1.889 1.895l-.132 3.733h-.83a.363.363 0 0 1-.074-.251V9.514a4.948 4.948 0 0 0 .512.027 8.7 8.7 0 0 1 5.237-.549 3.107 3.107 0 0 0 3.5-.011 3.068 3.068 0 0 0 1.758.56c.1 0 .2-.007.3-.013V15.8zM3.226 5.04V2.29a.3.3 0 0 1 .229-.335h9.971a1.1 1.1 0 0 1 .741-.06v2.842l1.145 1.646a1.177 1.177 0 0 1-.142.68 1.667 1.667 0 0 1-1.42.523 1.552 1.552 0 0 1-1.166-.529l-.593-.675-.592.675a1.6 1.6 0 0 1-2.322.012l-.586-.654-.586.654a1.6 1.6 0 0 1-2.315 0L5 6.4l-.588.661a1.553 1.553 0 0 1-1.16.521 1.668 1.668 0 0 1-1.42-.523 1.178 1.178 0 0 1-.142-.679z" fill="#61279e" fill-rule="evenodd"/></svg>