<svg xmlns="http://www.w3.org/2000/svg" width="24" height="26.688"><path fill-rule="evenodd" fill="#61279E" d="M15.366 14.115h.172c.838-.04 1.16-.434 1.283-.758.29-.768-.366-1.778-.937-2.464 1.528-1.211.417-3.04.043-3.919l-.052-.124-.668-1.358-.287-.844C14.813 4.073 13.897.095 9.045.095c-5.152 0-6.329 4.504-6.335 4.527l-.355 1.229-.435 1.262-.036.186c-.231 1.226-.718 2.531.329 3.888-.762.972-1.017 1.727-.781 2.302.12.291.413.642 1.146.718a14.965 14.965 0 0 0-1.545 2.778c-.185.432-.149.886.101 1.279.911 1.426 5.167 1.639 7.623 1.639 2.098 0 7.086-.168 8.077-1.734.253-.399.287-.859.096-1.295a14.7 14.7 0 0 0-1.564-2.759zm-3.261-2.105c-.764 1.522-1.893 2.395-3.098 2.395-1.129 0-2.211-.78-2.955-2.113a16.745 16.745 0 0 1-.507-1.136 8.983 8.983 0 0 1-.482-2.932l.003-.111a3.214 3.214 0 0 0 1.638-1.641l1.95.542a9.002 9.002 0 0 0 4.257 2.013 8.539 8.539 0 0 1-.392 1.974l-.414 1.009zm-7.344 2.208l.566-.001c1.023 1.242 2.321 1.921 3.68 1.921 1.401 0 2.729-.715 3.764-2.023l.379.001c.823.861 1.534 1.938 2.118 3.21-.62.337-2.851.843-6.511.843-3.582 0-5.496-.468-6.054-.753.569-1.261 1.26-2.334 2.058-3.198z"/></svg>